<?xml version="1.0" encoding="UTF-8"?>
<!DOCTYPE svg PUBLIC "-//W3C//DTD SVG 1.1//EN" "http://www.w3.org/Graphics/SVG/1.1/DTD/svg11.dtd">
<!-- Creator: CorelDRAW 2020 (64-Bit) -->
<svg xmlns="http://www.w3.org/2000/svg" xml:space="preserve" width="0.666661in" height="0.669189in" version="1.1" style="shape-rendering:geometricPrecision; text-rendering:geometricPrecision; image-rendering:optimizeQuality; fill-rule:evenodd; clip-rule:evenodd"
viewBox="0 0 72.7 72.97"
 xmlns:xlink="http://www.w3.org/1999/xlink"
 xmlns:xodm="http://www.corel.com/coreldraw/odm/2003">
 <defs>
  <style type="text/css">
   <![CDATA[
    .fil0 {fill:#373435;fill-rule:nonzero}
   ]]>
  </style>
 </defs>
 <g id="Layer_x0020_1">
  <metadata id="CorelCorpID_0Corel-Layer"/>
  <path class="fil0" d="M43.72 67.77l0.77 4.29 -2.9 0.52 -0.09 -0.5 2.33 -0.42 -0.24 -1.34 -2.02 0.36 -0.09 -0.5 2.02 -0.36 -0.35 -1.95 0.57 -0.1zm-3.3 2.73c0.05,0.72 -0.1,1.3 -0.45,1.74 -0.36,0.44 -0.84,0.68 -1.45,0.73 -0.4,0.03 -0.77,-0.04 -1.11,-0.2 -0.34,-0.17 -0.6,-0.42 -0.8,-0.75 -0.2,-0.33 -0.31,-0.71 -0.34,-1.15 -0.03,-0.44 0.03,-0.84 0.18,-1.2 0.15,-0.36 0.38,-0.64 0.7,-0.85 0.31,-0.2 0.66,-0.32 1.04,-0.35 0.41,-0.03 0.78,0.04 1.12,0.21 0.34,0.17 0.6,0.42 0.79,0.75 0.19,0.33 0.3,0.68 0.33,1.07zm-0.6 0.04c-0.04,-0.52 -0.21,-0.93 -0.52,-1.2 -0.3,-0.28 -0.67,-0.4 -1.09,-0.37 -0.43,0.03 -0.78,0.21 -1.03,0.54 -0.26,0.32 -0.36,0.77 -0.32,1.33 0.03,0.35 0.11,0.66 0.25,0.91 0.14,0.25 0.33,0.45 0.57,0.57 0.24,0.13 0.51,0.18 0.79,0.16 0.41,-0.03 0.75,-0.2 1.02,-0.5 0.27,-0.3 0.38,-0.78 0.33,-1.43zm-4.46 0.22c-0.05,0.72 -0.29,1.27 -0.71,1.65 -0.42,0.38 -0.93,0.54 -1.55,0.5 -0.4,-0.03 -0.76,-0.15 -1.06,-0.37 -0.31,-0.22 -0.53,-0.5 -0.68,-0.86 -0.14,-0.36 -0.2,-0.75 -0.17,-1.18 0.03,-0.44 0.15,-0.83 0.36,-1.16 0.2,-0.33 0.48,-0.58 0.82,-0.73 0.34,-0.15 0.7,-0.22 1.08,-0.19 0.41,0.03 0.77,0.16 1.08,0.38 0.31,0.22 0.53,0.51 0.67,0.86 0.14,0.35 0.2,0.72 0.17,1.1zm-0.59 -0.06c0.04,-0.52 -0.07,-0.95 -0.33,-1.27 -0.26,-0.32 -0.6,-0.5 -1.03,-0.53 -0.43,-0.03 -0.8,0.09 -1.1,0.37 -0.3,0.28 -0.47,0.7 -0.52,1.26 -0.03,0.35 0.01,0.67 0.11,0.94 0.1,0.27 0.26,0.49 0.48,0.65 0.22,0.16 0.47,0.26 0.76,0.28 0.41,0.03 0.77,-0.08 1.08,-0.34 0.31,-0.26 0.5,-0.71 0.55,-1.36zm-4.14 -2.54l-0.98 4.25 -1.46 -0.34c-0.33,-0.08 -0.58,-0.15 -0.74,-0.23 -0.23,-0.11 -0.41,-0.26 -0.55,-0.45 -0.18,-0.24 -0.29,-0.52 -0.33,-0.84 -0.04,-0.32 -0.02,-0.67 0.07,-1.05 0.07,-0.32 0.18,-0.6 0.31,-0.83 0.13,-0.23 0.28,-0.42 0.43,-0.55 0.16,-0.14 0.31,-0.23 0.48,-0.29 0.16,-0.06 0.35,-0.09 0.56,-0.1 0.21,-0 0.44,0.03 0.7,0.09l1.53 0.35zm-0.68 0.37l-0.91 -0.21c-0.28,-0.06 -0.51,-0.09 -0.68,-0.07 -0.17,0.02 -0.31,0.06 -0.43,0.13 -0.16,0.1 -0.31,0.26 -0.43,0.47 -0.13,0.21 -0.23,0.47 -0.3,0.79 -0.1,0.45 -0.11,0.8 -0.02,1.08 0.09,0.27 0.23,0.47 0.42,0.6 0.14,0.09 0.37,0.18 0.71,0.25l0.89 0.21 0.75 -3.25zm-5.23 -1.99l-1.8 3.97 -2.68 -1.21 0.21 -0.47 2.15 0.97 0.56 -1.24 -1.87 -0.84 0.21 -0.47 1.87 0.84 0.82 -1.8 0.53 0.24zm-4.26 0.39c-0.36,0.63 -0.81,1.02 -1.35,1.18 -0.54,0.16 -1.08,0.09 -1.61,-0.22 -0.35,-0.2 -0.62,-0.46 -0.8,-0.79 -0.18,-0.33 -0.26,-0.68 -0.24,-1.07 0.02,-0.38 0.14,-0.76 0.36,-1.14 0.22,-0.38 0.5,-0.68 0.82,-0.89 0.33,-0.21 0.68,-0.32 1.05,-0.31 0.37,0.01 0.73,0.11 1.05,0.3 0.36,0.2 0.62,0.47 0.81,0.81 0.18,0.33 0.26,0.69 0.23,1.07 -0.03,0.38 -0.13,0.74 -0.33,1.07zm-0.51 -0.31c0.26,-0.46 0.35,-0.88 0.25,-1.29 -0.09,-0.4 -0.33,-0.71 -0.7,-0.92 -0.38,-0.22 -0.76,-0.26 -1.16,-0.14 -0.39,0.12 -0.73,0.43 -1.01,0.92 -0.18,0.31 -0.28,0.61 -0.31,0.89 -0.03,0.29 0.02,0.55 0.15,0.79 0.13,0.24 0.32,0.43 0.57,0.58 0.35,0.2 0.73,0.26 1.12,0.16 0.39,-0.1 0.76,-0.43 1.08,-1zm-2.62 -4.13l-2.7 3.43 -1.52 -1.19c-0.31,-0.24 -0.51,-0.45 -0.62,-0.64 -0.11,-0.19 -0.15,-0.39 -0.12,-0.63 0.03,-0.23 0.12,-0.44 0.26,-0.63 0.19,-0.24 0.43,-0.39 0.72,-0.43 0.29,-0.04 0.61,0.04 0.98,0.26 -0.08,-0.15 -0.12,-0.28 -0.14,-0.39 -0.04,-0.23 -0.04,-0.48 -0.02,-0.75l0.14 -1.4 0.57 0.45 -0.11 1.07c-0.03,0.31 -0.05,0.55 -0.05,0.73 0,0.18 0.02,0.31 0.05,0.41 0.03,0.1 0.08,0.18 0.14,0.25 0.04,0.05 0.12,0.12 0.24,0.21l0.53 0.41 1.2 -1.52 0.46 0.36zm-1.96 1.56l-0.97 -0.77c-0.21,-0.16 -0.39,-0.27 -0.54,-0.32 -0.15,-0.05 -0.29,-0.05 -0.43,-0 -0.13,0.05 -0.25,0.12 -0.33,0.24 -0.13,0.16 -0.17,0.34 -0.14,0.54 0.04,0.2 0.18,0.39 0.43,0.59l1.08 0.85 0.89 -1.14zm-2.58 -5.56l-3.3 2.86 -0.38 -0.44 2.91 -2.52 -1.4 -1.62 0.39 -0.33 1.78 2.06zm-2.25 -2.69l-3.55 2.53 -0.34 -0.47 3.55 -2.53 0.34 0.47zm-0.94 -1.32l-3.67 2.35 -1.59 -2.48 0.43 -0.28 1.28 1.99 1.14 -0.73 -1.11 -1.72 0.43 -0.28 1.1 1.72 1.67 -1.07 0.31 0.49zm-1.93 -3.16l-3.97 1.8 -1.3 -2.87 0.47 -0.21 1.06 2.34 1.22 -0.55 -0.99 -2.19 0.47 -0.21 0.99 2.19 1.35 -0.61 -1.1 -2.44 0.47 -0.21 1.34 2.96zm-4.56 -8.1l-0.6 0.11c-0.27,-0.17 -0.43,-0.42 -0.49,-0.75 -0.02,-0.12 -0.03,-0.24 -0.01,-0.38 0.01,-0.14 0.05,-0.33 0.11,-0.59 0.03,-0.15 0.05,-0.25 0.06,-0.32 0.01,-0.07 0,-0.14 -0.01,-0.21 -0.02,-0.13 -0.08,-0.25 -0.18,-0.37 -0.1,-0.12 -0.22,-0.22 -0.35,-0.31l0.62 -0.11c0.14,0.1 0.24,0.22 0.32,0.33 0.08,0.12 0.13,0.26 0.16,0.42 0.02,0.12 0.03,0.23 0.02,0.34 -0.01,0.11 -0.04,0.29 -0.11,0.54 -0.06,0.25 -0.08,0.45 -0.05,0.61 0.02,0.12 0.07,0.24 0.14,0.34 0.07,0.1 0.2,0.22 0.39,0.36zm-0.39 -11.34l-0.51 -0.06 0.23 -1.83 1.6 0.2c0.19,0.31 0.32,0.62 0.39,0.93 0.07,0.31 0.09,0.63 0.05,0.94 -0.05,0.43 -0.19,0.8 -0.42,1.12 -0.23,0.32 -0.52,0.55 -0.89,0.69 -0.37,0.13 -0.76,0.17 -1.19,0.12 -0.42,-0.05 -0.8,-0.19 -1.15,-0.41 -0.34,-0.22 -0.58,-0.51 -0.72,-0.86 -0.14,-0.35 -0.18,-0.75 -0.12,-1.18 0.04,-0.31 0.13,-0.59 0.26,-0.83 0.13,-0.24 0.3,-0.42 0.5,-0.54 0.2,-0.12 0.45,-0.2 0.75,-0.24l0.08 0.53c-0.23,0.04 -0.41,0.1 -0.55,0.18 -0.14,0.08 -0.26,0.2 -0.35,0.37 -0.1,0.17 -0.16,0.36 -0.19,0.58 -0.03,0.26 -0.02,0.49 0.03,0.69 0.06,0.2 0.14,0.37 0.26,0.5 0.12,0.13 0.25,0.24 0.39,0.33 0.26,0.14 0.54,0.24 0.85,0.28 0.39,0.05 0.72,0.02 1,-0.07 0.28,-0.1 0.5,-0.27 0.65,-0.51 0.16,-0.24 0.26,-0.5 0.29,-0.78 0.03,-0.25 0.01,-0.5 -0.05,-0.74 -0.07,-0.25 -0.15,-0.44 -0.24,-0.57l-0.81 -0.1 -0.16 1.27zm2.2 -2.53l-4.25 -0.98 0.13 -0.56 4.25 0.98 -0.13 0.56zm0.36 -1.57l-4.13 -1.4 0.62 -1.83c0.12,-0.37 0.26,-0.64 0.4,-0.8 0.14,-0.17 0.32,-0.27 0.55,-0.33 0.23,-0.05 0.45,-0.04 0.68,0.04 0.29,0.1 0.51,0.28 0.65,0.54 0.14,0.26 0.16,0.59 0.09,1.01 0.12,-0.12 0.22,-0.21 0.32,-0.26 0.2,-0.11 0.44,-0.2 0.7,-0.27l1.37 -0.33 -0.23 0.68 -1.04 0.26c-0.3,0.07 -0.54,0.14 -0.7,0.2 -0.17,0.06 -0.29,0.12 -0.37,0.18 -0.08,0.06 -0.14,0.13 -0.19,0.21 -0.03,0.06 -0.07,0.16 -0.12,0.3l-0.21 0.63 1.84 0.62 -0.19 0.55zm-2.12 -1.33l0.4 -1.17c0.08,-0.25 0.12,-0.45 0.12,-0.61 -0,-0.16 -0.05,-0.29 -0.14,-0.4 -0.09,-0.11 -0.2,-0.19 -0.33,-0.24 -0.2,-0.07 -0.38,-0.05 -0.55,0.05 -0.17,0.1 -0.31,0.3 -0.41,0.61l-0.44 1.31 1.37 0.46zm3.63 -2.76l-3.97 -1.8 0.24 -0.53 3.51 1.59 0.88 -1.95 0.47 0.21 -1.12 2.48zm2.8 -7.75l0.45 -0.39c0.32,0.37 0.48,0.76 0.51,1.16 0.02,0.4 -0.1,0.79 -0.36,1.15 -0.27,0.38 -0.57,0.64 -0.9,0.77 -0.33,0.13 -0.68,0.15 -1.07,0.07 -0.39,-0.09 -0.75,-0.25 -1.09,-0.49 -0.37,-0.26 -0.64,-0.56 -0.82,-0.9 -0.17,-0.34 -0.24,-0.69 -0.2,-1.05 0.04,-0.36 0.18,-0.7 0.4,-1.01 0.25,-0.36 0.56,-0.59 0.91,-0.7 0.35,-0.11 0.73,-0.1 1.12,0.04l-0.22 0.54c-0.32,-0.1 -0.59,-0.12 -0.82,-0.04 -0.23,0.07 -0.43,0.23 -0.6,0.46 -0.19,0.27 -0.29,0.55 -0.29,0.82 0,0.28 0.09,0.53 0.25,0.76 0.17,0.23 0.37,0.43 0.6,0.6 0.3,0.21 0.6,0.36 0.88,0.43 0.29,0.07 0.55,0.06 0.8,-0.05 0.24,-0.11 0.44,-0.27 0.59,-0.48 0.19,-0.26 0.27,-0.54 0.25,-0.83 -0.02,-0.29 -0.16,-0.57 -0.41,-0.85zm2.06 -0.16l-3.16 -3.01 0.4 -0.42 1.3 1.24 1.56 -1.63 -1.3 -1.24 0.4 -0.42 3.16 3.01 -0.4 0.42 -1.49 -1.42 -1.56 1.63 1.49 1.42 -0.4 0.42zm3.15 -3.17l-2.86 -3.3 0.44 -0.38 2.86 3.3 -0.44 0.38zm1.19 -1.02l-2.7 -3.43 0.46 -0.36 2.38 3.03 1.69 -1.33 0.32 0.4 -2.14 1.68zm2.74 -2.04l-2.17 -3.78 1.3 -0.75c0.29,-0.17 0.53,-0.28 0.7,-0.33 0.25,-0.07 0.48,-0.09 0.71,-0.05 0.3,0.05 0.57,0.18 0.82,0.39 0.25,0.21 0.47,0.48 0.67,0.81 0.17,0.29 0.28,0.56 0.34,0.82 0.06,0.26 0.08,0.49 0.06,0.7 -0.02,0.21 -0.07,0.39 -0.15,0.54 -0.08,0.15 -0.19,0.31 -0.34,0.45 -0.15,0.14 -0.34,0.28 -0.57,0.41l-1.36 0.78zm0.25 -0.73l0.81 -0.46c0.25,-0.14 0.43,-0.28 0.55,-0.41 0.12,-0.13 0.19,-0.26 0.23,-0.39 0.05,-0.19 0.05,-0.4 0,-0.64 -0.05,-0.24 -0.16,-0.5 -0.32,-0.79 -0.23,-0.4 -0.47,-0.66 -0.72,-0.8 -0.25,-0.14 -0.49,-0.19 -0.72,-0.16 -0.16,0.02 -0.39,0.12 -0.69,0.29l-0.79 0.46 1.66 2.89zm5.16 -2.1l-1.4 -4.13 2.98 -1.01 0.16 0.49 -2.44 0.82 0.43 1.27 2.28 -0.77 0.16 0.48 -2.28 0.77 0.48 1.41 2.53 -0.86 0.16 0.48 -3.08 1.04zm3.86 -1.24l-0.98 -4.25 1.46 -0.34c0.33,-0.08 0.59,-0.11 0.77,-0.11 0.26,0 0.49,0.05 0.69,0.16 0.27,0.14 0.49,0.34 0.67,0.61 0.18,0.27 0.31,0.59 0.4,0.97 0.07,0.32 0.1,0.62 0.09,0.88 -0.02,0.27 -0.07,0.5 -0.15,0.69 -0.08,0.19 -0.18,0.35 -0.3,0.47 -0.12,0.13 -0.27,0.24 -0.46,0.33 -0.19,0.09 -0.41,0.17 -0.67,0.23l-1.53 0.35zm0.45 -0.63l0.91 -0.21c0.28,-0.06 0.49,-0.14 0.64,-0.23 0.15,-0.09 0.26,-0.19 0.33,-0.31 0.1,-0.16 0.16,-0.37 0.19,-0.61 0.02,-0.24 -0,-0.52 -0.08,-0.85 -0.1,-0.45 -0.26,-0.77 -0.46,-0.98 -0.2,-0.21 -0.41,-0.32 -0.64,-0.36 -0.16,-0.02 -0.41,0 -0.75,0.08l-0.89 0.21 0.75 3.25zm6.39 -4.78l0.58 -0.04 0.19 2.51c0.03,0.44 0.01,0.79 -0.07,1.05 -0.08,0.26 -0.24,0.49 -0.49,0.67 -0.25,0.18 -0.58,0.29 -1,0.32 -0.41,0.03 -0.74,-0.01 -1.01,-0.13 -0.27,-0.12 -0.47,-0.31 -0.6,-0.57 -0.13,-0.26 -0.21,-0.62 -0.25,-1.08l-0.19 -2.51 0.58 -0.04 0.19 2.51c0.03,0.38 0.09,0.65 0.17,0.83 0.08,0.17 0.21,0.3 0.39,0.39 0.18,0.08 0.39,0.12 0.64,0.1 0.42,-0.03 0.71,-0.15 0.88,-0.36 0.16,-0.21 0.23,-0.58 0.18,-1.13l-0.19 -2.51zm5.09 3.02l0.57 0.19c-0.16,0.46 -0.4,0.81 -0.73,1.03 -0.33,0.22 -0.72,0.32 -1.18,0.29 -0.47,-0.04 -0.84,-0.16 -1.12,-0.37 -0.28,-0.21 -0.48,-0.51 -0.61,-0.88 -0.13,-0.37 -0.17,-0.77 -0.14,-1.18 0.03,-0.45 0.15,-0.84 0.35,-1.17 0.2,-0.32 0.46,-0.56 0.8,-0.71 0.33,-0.15 0.69,-0.21 1.07,-0.18 0.44,0.03 0.79,0.17 1.07,0.42 0.28,0.24 0.46,0.57 0.55,0.98l-0.58 0.09c-0.08,-0.32 -0.21,-0.57 -0.39,-0.72 -0.18,-0.16 -0.42,-0.25 -0.71,-0.27 -0.33,-0.03 -0.62,0.03 -0.85,0.18 -0.24,0.14 -0.41,0.35 -0.52,0.61 -0.11,0.26 -0.18,0.54 -0.2,0.83 -0.03,0.37 0,0.7 0.09,0.98 0.09,0.28 0.24,0.5 0.45,0.66 0.22,0.15 0.46,0.24 0.72,0.26 0.32,0.02 0.6,-0.05 0.84,-0.22 0.24,-0.17 0.41,-0.43 0.52,-0.79zm0.69 1.62l2.41 -4 0.62 0.11 0.98 4.61 -0.65 -0.12 -0.26 -1.39 -1.81 -0.32 -0.7 1.22 -0.6 -0.11zm1.55 -1.54l1.46 0.26 -0.23 -1.27c-0.07,-0.39 -0.12,-0.7 -0.15,-0.95 -0.11,0.27 -0.24,0.53 -0.38,0.78l-0.7 1.18zm3.52 2.68l1.23 -3.65 -1.36 -0.46 0.16 -0.48 3.27 1.11 -0.16 0.48 -1.36 -0.46 -1.23 3.65 -0.55 -0.19zm2.55 0.92l1.6 -4.06 0.54 0.21 -1.6 4.06 -0.54 -0.21zm2.28 -1.36c0.33,-0.64 0.76,-1.06 1.29,-1.25 0.53,-0.19 1.07,-0.14 1.62,0.14 0.36,0.18 0.64,0.43 0.84,0.75 0.2,0.32 0.3,0.67 0.29,1.05 -0.01,0.38 -0.11,0.77 -0.31,1.16 -0.2,0.39 -0.46,0.7 -0.78,0.93 -0.32,0.23 -0.66,0.35 -1.04,0.36 -0.37,0.01 -0.73,-0.07 -1.07,-0.24 -0.37,-0.19 -0.65,-0.44 -0.84,-0.77 -0.2,-0.32 -0.29,-0.68 -0.28,-1.06 0.01,-0.38 0.1,-0.74 0.27,-1.08zm0.53 0.28c-0.24,0.47 -0.3,0.9 -0.19,1.3 0.11,0.4 0.36,0.69 0.74,0.89 0.39,0.2 0.77,0.22 1.16,0.08 0.39,-0.14 0.71,-0.46 0.97,-0.96 0.16,-0.32 0.25,-0.62 0.26,-0.91 0.01,-0.29 -0.05,-0.55 -0.19,-0.79 -0.14,-0.23 -0.34,-0.42 -0.59,-0.55 -0.36,-0.19 -0.74,-0.22 -1.13,-0.11 -0.39,0.12 -0.73,0.46 -1.03,1.05zm2.79 3.99l2.53 -3.55 0.48 0.34 -0.12 4.12 1.98 -2.79 0.45 0.32 -2.53 3.56 -0.48 -0.34 0.12 -4.12 -1.98 2.79 -0.45 -0.32zm8.22 5.11l0.48 -0.38c0.31,0.02 0.58,0.16 0.79,0.43 0.07,0.09 0.14,0.2 0.19,0.33 0.05,0.12 0.11,0.31 0.18,0.57 0.04,0.14 0.07,0.25 0.1,0.31 0.03,0.06 0.06,0.12 0.11,0.18 0.08,0.1 0.19,0.18 0.34,0.24 0.15,0.06 0.3,0.1 0.46,0.11l-0.5 0.39c-0.17,-0.03 -0.32,-0.08 -0.44,-0.15 -0.12,-0.07 -0.23,-0.17 -0.33,-0.3 -0.07,-0.09 -0.13,-0.19 -0.18,-0.29 -0.05,-0.1 -0.1,-0.28 -0.16,-0.53 -0.06,-0.25 -0.14,-0.44 -0.24,-0.56 -0.08,-0.1 -0.17,-0.18 -0.29,-0.23 -0.11,-0.05 -0.28,-0.1 -0.51,-0.13zm5.77 9.75l0.48 -0.19 0.68 1.72 -1.5 0.59c-0.31,-0.18 -0.58,-0.39 -0.8,-0.63 -0.22,-0.24 -0.38,-0.51 -0.5,-0.8 -0.16,-0.4 -0.22,-0.79 -0.17,-1.19 0.04,-0.39 0.19,-0.74 0.45,-1.03 0.26,-0.29 0.59,-0.52 0.98,-0.68 0.39,-0.16 0.8,-0.22 1.2,-0.19 0.41,0.03 0.75,0.17 1.04,0.41 0.29,0.24 0.51,0.57 0.67,0.97 0.12,0.29 0.17,0.58 0.17,0.85 -0,0.27 -0.06,0.51 -0.18,0.71 -0.12,0.2 -0.3,0.39 -0.54,0.57l-0.32 -0.43c0.18,-0.14 0.31,-0.28 0.4,-0.42 0.08,-0.14 0.13,-0.3 0.13,-0.5 0.01,-0.19 -0.03,-0.4 -0.11,-0.6 -0.1,-0.24 -0.22,-0.44 -0.36,-0.59 -0.15,-0.15 -0.3,-0.25 -0.47,-0.32 -0.17,-0.06 -0.33,-0.09 -0.5,-0.1 -0.29,-0 -0.59,0.05 -0.88,0.17 -0.36,0.14 -0.64,0.32 -0.84,0.55 -0.19,0.22 -0.3,0.47 -0.33,0.76 -0.02,0.28 0.02,0.56 0.12,0.83 0.09,0.23 0.23,0.44 0.4,0.63 0.18,0.19 0.34,0.31 0.49,0.39l0.76 -0.3 -0.47 -1.19zm-0.7 3.19l4.25 -0.98 0.43 1.88c0.09,0.38 0.12,0.68 0.08,0.89 -0.03,0.21 -0.13,0.4 -0.29,0.56 -0.17,0.16 -0.37,0.27 -0.6,0.32 -0.3,0.07 -0.58,0.03 -0.83,-0.12 -0.25,-0.15 -0.45,-0.42 -0.6,-0.81 -0.04,0.17 -0.08,0.29 -0.13,0.39 -0.11,0.2 -0.27,0.4 -0.46,0.6l-0.99 1 -0.16 -0.7 0.76 -0.77c0.22,-0.22 0.38,-0.4 0.49,-0.54 0.11,-0.14 0.18,-0.25 0.22,-0.35 0.03,-0.1 0.05,-0.19 0.05,-0.28 -0,-0.07 -0.02,-0.17 -0.05,-0.32l-0.15 -0.65 -1.89 0.44 -0.13 -0.56zm2.5 0.02l0.28 1.21c0.06,0.26 0.13,0.45 0.22,0.58 0.09,0.13 0.2,0.22 0.33,0.27 0.13,0.05 0.27,0.06 0.41,0.02 0.2,-0.05 0.35,-0.16 0.45,-0.33 0.1,-0.18 0.11,-0.42 0.04,-0.73l-0.31 -1.34 -1.41 0.32zm-1.57 4.29l4.35 -0.33 0.24 3.14 -0.51 0.04 -0.2 -2.56 -1.34 0.1 0.18 2.4 -0.51 0.04 -0.18 -2.4 -1.48 0.11 0.2 2.67 -0.51 0.04 -0.25 -3.24zm0.27 4.05l4.36 0.11 -0.08 3.15 -0.51 -0.01 0.07 -2.57 -1.34 -0.03 -0.06 2.41 -0.51 -0.01 0.06 -2.41 -1.49 -0.04 -0.07 2.67 -0.51 -0.01 0.08 -3.25zm-0.15 4.05l4.29 0.77 -0.1 0.58 -3.77 1.65 3.37 0.6 -0.1 0.55 -4.29 -0.77 0.1 -0.58 3.77 -1.65 -3.37 -0.6 0.1 -0.55zm-1.31 5.96l4.13 1.4 -1.01 2.98 -0.48 -0.16 0.82 -2.44 -1.27 -0.43 -0.77 2.28 -0.48 -0.16 0.77 -2.28 -1.41 -0.48 -0.86 2.53 -0.48 -0.16 1.04 -3.08zm-1.21 3.37l3.12 3.48 -0.29 0.56 -4.69 -0.41 0.3 -0.59 1.41 0.15 0.84 -1.64 -0.96 -1.02 0.28 -0.55zm1.02 1.93l-0.68 1.32 1.28 0.15c0.39,0.05 0.71,0.09 0.95,0.14 -0.23,-0.18 -0.44,-0.38 -0.64,-0.6l-0.92 -1.01zm-3.14 2.1l3.55 2.53 -1.12 1.58c-0.23,0.32 -0.43,0.53 -0.61,0.65 -0.18,0.12 -0.39,0.17 -0.62,0.15 -0.23,-0.02 -0.44,-0.09 -0.64,-0.23 -0.25,-0.18 -0.41,-0.41 -0.46,-0.7 -0.06,-0.29 0.01,-0.62 0.21,-0.99 -0.15,0.08 -0.28,0.13 -0.38,0.16 -0.22,0.05 -0.47,0.07 -0.75,0.05l-1.41 -0.07 0.42 -0.59 1.07 0.06c0.31,0.02 0.55,0.02 0.73,0.01 0.18,-0.01 0.31,-0.03 0.41,-0.07 0.09,-0.04 0.18,-0.09 0.25,-0.15 0.05,-0.05 0.12,-0.13 0.2,-0.25l0.39 -0.54 -1.58 -1.12 0.34 -0.47zm1.65 1.88l-0.72 1.01c-0.15,0.22 -0.25,0.4 -0.29,0.55 -0.04,0.15 -0.04,0.29 0.02,0.43 0.05,0.13 0.14,0.24 0.25,0.32 0.17,0.12 0.35,0.16 0.54,0.11 0.19,-0.04 0.39,-0.2 0.57,-0.46l0.8 -1.12 -1.18 -0.84zm-4.91 2.4l2.91 2.52 0.94 -1.09 0.39 0.34 -2.26 2.61 -0.39 -0.34 0.94 -1.09 -2.91 -2.52 0.38 -0.44zm-1.8 1.93l2.86 3.3 -0.44 0.38 -1.18 -1.36 -1.7 1.48 1.18 1.36 -0.44 0.38 -2.86 -3.3 0.44 -0.38 1.34 1.55 1.7 -1.48 -1.34 -1.55 0.44 -0.38zm-6.8 6.89l0.25 0.56c-0.09,0.3 -0.3,0.52 -0.61,0.66 -0.11,0.05 -0.23,0.09 -0.36,0.11 -0.13,0.02 -0.33,0.04 -0.6,0.04 -0.15,0 -0.26,0.01 -0.33,0.02 -0.07,0.01 -0.14,0.03 -0.2,0.06 -0.12,0.05 -0.22,0.14 -0.32,0.27 -0.09,0.13 -0.16,0.27 -0.21,0.42l-0.26 -0.58c0.07,-0.16 0.15,-0.29 0.25,-0.39 0.1,-0.1 0.22,-0.19 0.37,-0.25 0.11,-0.05 0.22,-0.08 0.33,-0.1 0.11,-0.02 0.29,-0.03 0.55,-0.03 0.26,0 0.46,-0.03 0.6,-0.1 0.12,-0.05 0.21,-0.13 0.29,-0.22 0.08,-0.09 0.16,-0.25 0.25,-0.46z"/>
 </g>
</svg>
